<svg width="25" height="25" viewBox="0 0 25 25" fill="none" xmlns="http://www.w3.org/2000/svg">
<g clip-path="url(#clip0)">
<path d="M22.4082 3.25635H20.8388V2.01254C20.8388 1.65437 20.5457 1.36133 20.1876 1.36133C19.8294 1.36133 19.5364 1.65437 19.5364 2.01254V3.25635H13.1545V2.01254C13.1545 1.65437 12.8614 1.36133 12.5033 1.36133C12.1451 1.36133 11.8521 1.65437 11.8521 2.01254V3.25635H5.40506V2.01254C5.40506 1.65437 5.11201 1.36133 4.75385 1.36133C4.39568 1.36133 4.10264 1.65437 4.10264 2.01254V3.25635H2.59834C1.16567 3.25635 0 4.46109 0 5.89376V21.0344C0 22.4736 1.15916 23.6393 2.59834 23.6393H22.4017C23.8409 23.6393 25 22.4736 25 21.0409V5.89376C25.0065 4.46109 23.8409 3.25635 22.4082 3.25635ZM23.7041 21.0344C23.7041 21.7508 23.1311 22.3303 22.4147 22.3368H22.4082H2.59834C1.882 22.3368 1.30242 21.7573 1.30242 21.0409V21.0344V5.89376C1.30242 5.17091 1.882 4.55878 2.59834 4.55878H4.10264V5.50303C4.10264 5.8612 4.39568 6.15424 4.75385 6.15424C5.11201 6.15424 5.40506 5.8612 5.40506 5.50303V4.55878H11.8521V5.50303C11.8521 5.8612 12.1451 6.15424 12.5033 6.15424C12.8614 6.15424 13.1545 5.8612 13.1545 5.50303V4.55878H19.5364V5.50303C19.5364 5.8612 19.8294 6.15424 20.1876 6.15424C20.5457 6.15424 20.8388 5.8612 20.8388 5.50303V4.55878H22.4082C23.1311 4.55878 23.7041 5.17743 23.7041 5.89376V21.0344Z" fill="black"/>
<path d="M10.7908 8.79102H9.65121C9.29304 8.79102 9 9.08406 9 9.44223C9 9.80039 9.29304 10.0934 9.65121 10.0934H10.7908C11.149 10.0934 11.442 9.80039 11.442 9.44223C11.442 9.08406 11.149 8.79102 10.7908 8.79102Z" fill="black"/>
<path d="M15.323 8.79102H14.1834C13.8253 8.79102 13.5322 9.08406 13.5322 9.44223C13.5322 9.80039 13.8253 10.0934 14.1834 10.0934H15.323C15.6812 10.0934 15.9743 9.80039 15.9743 9.44223C15.9743 9.08406 15.6877 8.79102 15.323 8.79102Z" fill="black"/>
<path d="M19.8943 8.79102H18.7547C18.3966 8.79102 18.1035 9.08406 18.1035 9.44223C18.1035 9.80039 18.3966 10.0934 18.7547 10.0934H19.8943C20.2525 10.0934 20.5456 9.80039 20.5456 9.44223C20.5456 9.08406 20.2525 8.79102 19.8943 8.79102Z" fill="black"/>
<path d="M10.7908 13.2852H9.65121C9.29304 13.2852 9 13.5782 9 13.9364C9 14.2945 9.29304 14.5876 9.65121 14.5876H10.7908C11.149 14.5876 11.442 14.2945 11.442 13.9364C11.442 13.5782 11.149 13.2852 10.7908 13.2852Z" fill="black"/>
<path d="M6.22605 13.2852H5.07992C4.72176 13.2852 4.42871 13.5782 4.42871 13.9364C4.42871 14.2945 4.72176 14.5876 5.07992 14.5876H6.21954C6.57771 14.5876 6.87075 14.2945 6.87075 13.9364C6.87075 13.5782 6.58422 13.2852 6.22605 13.2852Z" fill="black"/>
<path d="M15.323 13.2852H14.1834C13.8253 13.2852 13.5322 13.5782 13.5322 13.9364C13.5322 14.2945 13.8253 14.5876 14.1834 14.5876H15.323C15.6812 14.5876 15.9743 14.2945 15.9743 13.9364C15.9743 13.5782 15.6877 13.2852 15.323 13.2852Z" fill="black"/>
<path d="M19.8943 13.2852H18.7547C18.3966 13.2852 18.1035 13.5782 18.1035 13.9364C18.1035 14.2945 18.3966 14.5876 18.7547 14.5876H19.8943C20.2525 14.5876 20.5456 14.2945 20.5456 13.9364C20.5456 13.5782 20.2525 13.2852 19.8943 13.2852Z" fill="black"/>
<path d="M10.7908 17.7129H9.65121C9.29304 17.7129 9 18.0059 9 18.3641C9 18.7223 9.29304 19.0153 9.65121 19.0153H10.7908C11.149 19.0153 11.442 18.7223 11.442 18.3641C11.442 18.0059 11.149 17.7129 10.7908 17.7129Z" fill="black"/>
<path d="M6.22605 17.7129H5.07992C4.72176 17.7129 4.42871 18.0059 4.42871 18.3641C4.42871 18.7223 4.72176 19.0153 5.07992 19.0153H6.21954C6.57771 19.0153 6.87075 18.7223 6.87075 18.3641C6.87075 18.0059 6.58422 17.7129 6.22605 17.7129Z" fill="black"/>
<path d="M15.323 17.7129H14.1834C13.8253 17.7129 13.5322 18.0059 13.5322 18.3641C13.5322 18.7223 13.8253 19.0153 14.1834 19.0153H15.323C15.6812 19.0153 15.9743 18.7223 15.9743 18.3641C15.9743 18.0059 15.6877 17.7129 15.323 17.7129Z" fill="black"/>
</g>
<defs>
<clipPath id="clip0">
<rect width="25" height="25" fill="white"/>
</clipPath>
</defs>
</svg>
