<svg width="21" height="22" viewBox="0 0 21 22" fill="none" xmlns="http://www.w3.org/2000/svg">
<path d="M1.28906 12.2461V12.2626C0.511156 12.8514 0 13.8186 0 14.8672C0 16.6441 1.44577 18.1328 3.22266 18.1328H4.51172C4.86797 18.1328 5.15625 17.8445 5.15625 17.4883V12.2461C5.15625 11.8898 4.86797 11.6016 4.51172 11.6016H3.22266C3.00197 11.6016 2.78648 11.6243 2.57812 11.6668V11.6016C2.57812 7.33657 6.04751 3.86719 10.3125 3.86719C14.5775 3.86719 18.0469 7.33657 18.0469 11.6016V11.6668C17.8385 11.6243 17.623 11.6016 17.4023 11.6016H16.1133C15.757 11.6016 15.4688 11.8898 15.4688 12.2461V17.4883C15.4688 17.8445 15.757 18.1328 16.1133 18.1328H16.7578V18.7773C16.7578 19.133 16.4689 19.4219 16.1133 19.4219H12.7719C12.5049 18.6733 11.7962 18.1328 10.957 18.1328C9.8908 18.1328 9.02344 19.0002 9.02344 20.0664C9.02344 21.1326 9.8908 22 10.957 22C11.7962 22 12.5049 21.4595 12.7719 20.7109H16.1133C17.1795 20.7109 18.0469 19.8436 18.0469 18.7773V18.0676C19.516 17.7681 20.625 16.4233 20.625 14.8672C20.625 13.8186 20.1138 12.8514 19.3359 12.2626V9.02344C19.3359 4.04783 15.2881 0 10.3125 0C5.33689 0 1.28906 4.04783 1.28906 9.02344V12.2461Z" fill="white"/>
</svg>
