<svg width="15" height="25" viewBox="0 0 15 25" fill="none" xmlns="http://www.w3.org/2000/svg">
<path d="M11.8809 0H3.11909C1.38941 0 0 1.38941 0 3.11909V21.8336C0 23.5633 1.41777 24.9527 3.11909 24.9527H11.8809C13.6106 24.9527 15 23.5633 15 21.8336V3.11909C15 1.38941 13.6106 0 11.8809 0ZM7.51418 22.9395C6.72023 22.9395 6.09641 22.3157 6.09641 21.5217C6.09641 20.7278 6.72023 20.104 7.51418 20.104C8.30813 20.104 8.93195 20.7278 8.93195 21.5217C8.93195 22.3157 8.30813 22.9395 7.51418 22.9395ZM13.5822 18.6011H1.41777V4.16824H13.5822V18.6011Z" fill="white"/>
</svg>
