<svg width="55" height="55" viewBox="0 0 55 55" fill="none" xmlns="http://www.w3.org/2000/svg">
<path d="M34.1985 23.482C36.8301 23.482 38.9634 21.3486 38.9634 18.7171C38.9634 16.0855 36.8301 13.9521 34.1985 13.9521C31.5669 13.9521 29.4336 16.0855 29.4336 18.7171C29.4336 21.3486 31.5669 23.482 34.1985 23.482Z" fill="#FFE07D"/>
<path d="M28.1575 18.7173C30.7891 18.7173 32.9224 16.584 32.9224 13.9524C32.9224 11.3208 30.7891 9.1875 28.1575 9.1875C25.5259 9.1875 23.3926 11.3208 23.3926 13.9524C23.3926 16.584 25.5259 18.7173 28.1575 18.7173Z" fill="#FFE07D"/>
<path d="M36.025 14.3164C36.3619 14.9699 36.5533 15.7105 36.5533 16.4963C36.5533 19.1279 34.42 21.2612 31.7884 21.2612C31.1413 21.2612 30.5245 21.1317 29.9619 20.8979C30.7533 22.4328 32.3527 23.4829 34.1985 23.4829C36.8301 23.4829 38.9634 21.3496 38.9634 18.718C38.9635 16.7336 37.7501 15.0331 36.025 14.3164Z" fill="#FFD064"/>
<path d="M29.984 9.55078C30.3209 10.2042 30.5123 10.9449 30.5123 11.7307C30.5123 14.3623 28.379 16.4956 25.7474 16.4956C25.1003 16.4956 24.4835 16.3661 23.9209 16.1323C24.7123 17.6671 26.3117 18.7173 28.1575 18.7173C30.7891 18.7173 32.9224 16.584 32.9224 13.9524C32.9224 11.968 31.709 10.2674 29.984 9.55078Z" fill="#FFD064"/>
<path d="M27.4996 55.0002C19.0199 55.0002 11.143 51.176 5.88867 44.5082L8.47077 42.4735C12.9816 48.1978 19.6868 51.542 26.9384 51.7064C40.4305 52.012 51.5144 41.3522 51.7095 27.858C51.7443 25.4495 51.4275 23.0703 50.7687 20.7834C50.6866 20.4984 50.8491 20.2005 51.1322 20.1121L53.2247 19.4586C53.5187 19.3668 53.8299 19.5357 53.9156 19.8315C54.6351 22.3139 54.9996 24.8909 54.9996 27.5002C54.9996 34.8458 52.1391 41.7516 46.9451 46.9456C41.7509 52.1397 34.8451 55.0002 27.4996 55.0002Z" fill="#4A5056"/>
<path d="M1.71037 35.3319C1.41571 35.4213 1.1058 35.2502 1.02255 34.9538C0.343857 32.5378 0 30.0331 0 27.5C0 20.1545 2.86054 13.2487 8.05449 8.0546C13.2487 2.86054 20.1545 0 27.5 0C35.9777 0 43.8535 3.82272 49.1079 10.488L46.5261 12.5232C41.8992 6.65382 34.9643 3.28754 27.5 3.28754C14.1492 3.28754 3.28754 14.1492 3.28754 27.5C3.28754 29.7191 3.5866 31.9121 4.1771 34.0271C4.25691 34.3128 4.09213 34.6095 3.80821 34.6955L1.71037 35.3319Z" fill="#4A5056"/>
<path d="M53.9156 19.8315C53.8299 19.5357 53.5187 19.3668 53.2247 19.4586L52.1505 19.7941C52.8772 22.288 53.2453 24.8779 53.2453 27.5002C53.2453 34.8458 50.3848 41.7516 45.1908 46.9456C40.2024 51.9342 33.6346 54.7685 26.6152 54.9852C26.9094 54.9944 27.204 55.0002 27.4996 55.0002C34.8451 55.0002 41.751 52.1397 46.945 46.9456C52.1391 41.7516 54.9996 34.8458 54.9996 27.5002C54.9996 24.8909 54.6352 22.3139 53.9156 19.8315Z" fill="#808080"/>
<path d="M27.4998 0C25.7145 0 23.9554 0.170371 22.2402 0.500801C23.2526 0.389082 24.2767 0.33043 25.3101 0.33043C33.7879 0.33043 41.6636 4.15314 46.918 10.8185L45.8265 11.6789C46.0646 11.9549 46.2989 12.2351 46.5261 12.5232L49.1078 10.488C43.8533 3.82272 35.9776 0 27.4998 0Z" fill="#808080"/>
<path d="M49.7458 13.8681H40.9425C40.6399 13.8681 40.3945 13.6227 40.3945 13.3201V11.1284C40.3945 10.8258 40.6399 10.5804 40.9425 10.5804H47.1157V4.40733C47.1157 4.10473 47.3611 3.85938 47.6637 3.85938H49.8554C50.158 3.85938 50.4034 4.10473 50.4034 4.40733V13.2107C50.4032 13.5738 50.1089 13.8681 49.7458 13.8681Z" fill="#808080"/>
<path d="M49.8554 3.85938H48.7743V11.5816C48.7743 11.9447 48.48 12.2391 48.1168 12.2391H40.3945V13.3202C40.3945 13.6228 40.6399 13.8682 40.9425 13.8682H49.7458C50.1089 13.8682 50.4034 13.5739 50.4034 13.2107V4.40733C50.4032 4.10473 50.158 3.85938 49.8554 3.85938Z" fill="#4A5056"/>
<path d="M7.33637 51.1377H5.14464C4.84203 51.1377 4.59668 50.8924 4.59668 50.5898V41.7864C4.59668 41.4233 4.89102 41.1289 5.25421 41.1289H14.0575C14.3601 41.1289 14.6055 41.3743 14.6055 41.6769V43.8686C14.6055 44.1712 14.3601 44.4166 14.0575 44.4166H7.88433V50.5898C7.88433 50.8925 7.63897 51.1377 7.33637 51.1377Z" fill="#808080"/>
<path d="M14.0574 41.1289H13.0437V42.3069C13.0437 42.6095 12.7983 42.8549 12.4957 42.8549H6.98005C6.61696 42.8549 6.32252 43.1492 6.32252 43.5124V49.0281C6.32252 49.3307 6.07717 49.576 5.77456 49.576H4.59668V50.5898C4.59668 50.8924 4.84203 51.1377 5.14464 51.1377H7.33636C7.63897 51.1377 7.88432 50.8924 7.88432 50.5898V44.4166H14.0575C14.3601 44.4166 14.6055 44.1712 14.6055 43.8686V41.6769C14.6054 41.3743 14.36 41.1289 14.0574 41.1289Z" fill="#4A5056"/>
<path d="M40.3776 38.308H14.8418C13.7739 38.308 12.9082 37.4423 12.9082 36.3745V35.5083L13.2305 34.6893L12.9082 33.8529V22.0088L13.2378 21.1811L12.9082 20.3534V19.4873C12.9082 18.4194 13.7739 17.5537 14.8418 17.5537H40.3776C41.4455 17.5537 42.3112 18.4194 42.3112 19.4873V36.3743C42.3112 37.4423 41.4455 38.308 40.3776 38.308Z" fill="#365E7D"/>
<path d="M40.3776 17.5527H38.6925V33.9266C38.6925 34.3473 38.3514 34.6883 37.9307 34.6883H13.2305L12.9082 35.5073V36.3735C12.9082 37.4414 13.7739 38.3071 14.8418 38.3071H40.3776C41.4455 38.3071 42.3112 37.4414 42.3112 36.3735V19.4863C42.3112 18.4183 41.4455 17.5527 40.3776 17.5527Z" fill="#2B4D66"/>
<path d="M19.3057 31.0804H11.9111C11.3178 31.0804 10.8369 30.5995 10.8369 30.0062V25.8535C10.8369 25.2602 11.3178 24.7793 11.9111 24.7793H19.3057C19.899 24.7793 20.38 25.2602 20.38 25.8535V30.0062C20.38 30.5995 19.899 31.0804 19.3057 31.0804Z" fill="#F4FBFF"/>
<path d="M19.3057 24.7793H18.5561V28.1824C18.5561 28.7757 18.0752 29.2566 17.4819 29.2566H10.8369V30.0062C10.8369 30.5995 11.3178 31.0804 11.9111 31.0804H19.3057C19.899 31.0804 20.38 30.5995 20.38 30.0062V25.8535C20.38 25.2602 19.899 24.7793 19.3057 24.7793Z" fill="#E4F6FF"/>
<path d="M14.9518 13.8479C18.734 13.8479 21.8 10.7818 21.8 6.99962C21.8 3.21743 18.734 0.151367 14.9518 0.151367C11.1696 0.151367 8.10352 3.21743 8.10352 6.99962C8.10352 10.7818 11.1696 13.8479 14.9518 13.8479Z" fill="#FFE07D"/>
<path d="M18.3159 1.03516C18.8779 2.02913 19.2001 3.17651 19.2001 4.39972C19.2001 8.18194 16.1341 11.248 12.3519 11.248C11.1287 11.248 9.98128 10.9257 8.9873 10.3638C10.1628 12.443 12.3925 13.8475 14.9514 13.8475C18.7336 13.8475 21.7996 10.7814 21.7996 6.99922C21.7996 4.44022 20.3951 2.21067 18.3159 1.03516Z" fill="#FFD064"/>
<path d="M15.7701 6.4023C15.1957 6.19928 14.5622 5.95532 14.218 5.68537C14.1656 5.64423 14.1295 5.50608 14.1596 5.34602C14.1752 5.26299 14.2476 4.98562 14.5207 4.90334C15.1234 4.7219 15.5068 5.02322 15.5486 5.05824L15.5353 5.04632L15.7641 5.14182C16.5774 5.48138 17.2717 4.46173 16.6576 3.82944C16.4559 3.64339 16.0964 3.41802 15.6297 3.29094V3.16558C15.6297 2.7085 15.2591 2.33789 14.802 2.33789C14.345 2.33789 13.9743 2.7085 13.9743 3.16558V3.34186C13.2339 3.59301 12.6843 4.23636 12.533 5.03934C12.3884 5.80665 12.6425 6.55323 13.1964 6.98775C13.7276 7.40434 14.4821 7.70265 15.2184 7.96293C15.7038 8.13459 15.753 8.48457 15.7088 8.74797C15.6465 9.1189 15.3343 9.51969 14.7964 9.52323C14.194 9.52753 14.0362 9.5025 13.5886 9.20967C13.1785 8.94144 12.6187 9.08388 12.3932 9.5358C12.2024 9.91822 12.3553 10.3839 12.7144 10.6157C13.1902 10.9228 13.558 11.0677 13.9743 11.1321V11.2721C13.9743 11.7291 14.345 12.0997 14.802 12.0997C15.2591 12.0997 15.6297 11.7291 15.6297 11.2721V11.043C16.5874 10.7196 17.1995 9.86569 17.3413 9.02254C17.5372 7.85669 16.9058 6.80374 15.7701 6.4023Z" fill="#FFC250"/>
<path d="M16.269 28.8683H14.9517C14.4946 28.8683 14.124 28.4977 14.124 28.0406C14.124 27.5835 14.4946 27.2129 14.9517 27.2129H16.269C16.7261 27.2129 17.0967 27.5835 17.0967 28.0406C17.0967 28.4977 16.7261 28.8683 16.269 28.8683Z" fill="#2B4D66"/>
<path d="M33.8766 22.0089H31.0458C30.5887 22.0089 30.2181 21.6383 30.2181 21.1812C30.2181 20.7241 30.5887 20.3535 31.0458 20.3535H33.8766C34.3337 20.3535 34.7043 20.7241 34.7043 21.1812C34.7043 21.6383 34.3337 22.0089 33.8766 22.0089ZM27.4061 22.0089H24.5754C24.1183 22.0089 23.7477 21.6383 23.7477 21.1812C23.7477 20.7241 24.1183 20.3535 24.5754 20.3535H27.4061C27.8632 20.3535 28.2338 20.7241 28.2338 21.1812C28.2338 21.6383 27.8632 22.0089 27.4061 22.0089ZM20.9357 22.0089H18.105C17.6479 22.0089 17.2773 21.6383 17.2773 21.1812C17.2773 20.7241 17.6479 20.3535 18.105 20.3535H20.9358C21.3929 20.3535 21.7635 20.7241 21.7635 21.1812C21.7634 21.6383 21.3929 22.0089 20.9357 22.0089Z" fill="#F4FBFF"/>
<path d="M38.963 23.5914C38.5059 23.5914 38.1353 23.2208 38.1353 22.7637V22.0089H37.3804C36.9233 22.0089 36.5527 21.6383 36.5527 21.1812C36.5527 20.7241 36.9233 20.3535 37.3804 20.3535H38.415C39.1735 20.3535 39.7906 20.9705 39.7906 21.7292V22.7637C39.7906 23.2209 39.42 23.5914 38.963 23.5914ZM38.415 22.009H38.4161H38.415Z" fill="#F4FBFF"/>
<path d="M38.9634 30.2255C38.5063 30.2255 38.1357 29.8549 38.1357 29.3979V26.4839C38.1357 26.0269 38.5063 25.6562 38.9634 25.6562C39.4205 25.6562 39.7911 26.0269 39.7911 26.4839V29.3979C39.7911 29.855 39.4205 30.2255 38.9634 30.2255Z" fill="#F4FBFF"/>
<path d="M38.415 35.5084H37.3804C36.9233 35.5084 36.5527 35.1378 36.5527 34.6807C36.5527 34.2237 36.9233 33.853 37.3804 33.853H38.1353V33.0982C38.1353 32.6411 38.5059 32.2705 38.963 32.2705C39.42 32.2705 39.7906 32.6411 39.7906 33.0982V34.1328C39.7906 34.8913 39.1735 35.5084 38.415 35.5084Z" fill="#F4FBFF"/>
<path d="M33.7662 35.5079H30.9355C30.4784 35.5079 30.1078 35.1373 30.1078 34.6802C30.1078 34.2231 30.4784 33.8525 30.9355 33.8525H33.7662C34.2233 33.8525 34.5939 34.2231 34.5939 34.6802C34.5939 35.1373 34.2233 35.5079 33.7662 35.5079ZM27.2959 35.5079H24.4651C24.008 35.5079 23.6374 35.1373 23.6374 34.6802C23.6374 34.2231 24.008 33.8525 24.4651 33.8525H27.2959C27.753 33.8525 28.1236 34.2231 28.1236 34.6802C28.1236 35.1373 27.753 35.5079 27.2959 35.5079ZM20.8255 35.5079H17.9947C17.5376 35.5079 17.167 35.1373 17.167 34.6802C17.167 34.2231 17.5376 33.8525 17.9947 33.8525H20.8255C21.2825 33.8525 21.6531 34.2231 21.6531 34.6802C21.6531 35.1373 21.2825 35.5079 20.8255 35.5079Z" fill="#F4FBFF"/>
<path d="M14.4907 35.5079C14.9478 35.5079 15.3184 35.1373 15.3184 34.6802C15.3184 34.2231 14.9478 33.8525 14.4907 33.8525H12.9082V35.5078H14.4907V35.5079Z" fill="#F4FBFF"/>
<path d="M21.6532 34.6895H17.168C17.1727 35.1425 17.541 35.5084 17.9952 35.5084H20.826C21.2801 35.5084 21.6484 35.1425 21.6532 34.6895Z" fill="#E4F6FF"/>
<path d="M33.7663 35.5084C34.2205 35.5084 34.5889 35.1426 34.5936 34.6895H30.1084C30.1131 35.1425 30.4815 35.5084 30.9357 35.5084H33.7663Z" fill="#E4F6FF"/>
<path d="M27.2967 35.5084C27.7509 35.5084 28.1192 35.1426 28.1239 34.6895H23.6387C23.6434 35.1425 24.0117 35.5084 24.4659 35.5084H27.2967Z" fill="#E4F6FF"/>
<path d="M15.3179 34.6895H12.9082V35.5084H14.4907C14.9448 35.5084 15.3132 35.1425 15.3179 34.6895Z" fill="#E4F6FF"/>
<path d="M14.4907 22.0089C14.9478 22.0089 15.3184 21.6383 15.3184 21.1812C15.3184 20.7241 14.9478 20.3535 14.4907 20.3535H12.9082V22.0088H14.4907V22.0089Z" fill="#F4FBFF"/>
<path d="M38.9633 25.6553C38.8682 25.6553 38.7774 25.672 38.6924 25.7016V30.1783C38.7774 30.2077 38.8683 30.2246 38.9633 30.2246C39.4204 30.2246 39.791 29.854 39.791 29.3969V26.483C39.791 26.0259 39.4204 25.6553 38.9633 25.6553Z" fill="#E4F6FF"/>
<path d="M38.9634 32.2705C38.8683 32.2705 38.7775 32.2873 38.6925 32.3168V33.9277C38.6925 34.3484 38.3515 34.6894 37.9309 34.6894H36.5537C36.5584 35.1424 36.9268 35.5084 37.381 35.5084H38.4155C39.1741 35.5084 39.7911 34.8914 39.7911 34.1328V33.0982C39.7911 32.641 39.4205 32.2705 38.9634 32.2705Z" fill="#E4F6FF"/>
<path d="M38.6924 20.3809V23.5443C38.7774 23.5738 38.8683 23.5906 38.9633 23.5906C39.4204 23.5906 39.791 23.22 39.791 22.7629V21.7284C39.791 21.0648 39.3185 20.5094 38.6924 20.3809Z" fill="#E4F6FF"/>
</svg>
