<svg width="60" height="60" viewBox="0 0 60 60" fill="none" xmlns="http://www.w3.org/2000/svg">
<path d="M30.0001 0L27.5728 1.67932C9.20043 14.3907 17.7882 43.3722 40.126 43.7492C40.298 43.7521 40.4703 43.7535 40.6428 43.7535C47.0217 43.7535 54.1188 40.6963 58.8686 37.0204C58.9748 36.9382 59.3119 36.3857 59.3119 36.3857C59.3328 36.2578 59.9942 33.6242 59.9942 30.0059C59.9942 13.4405 46.5654 0 30.0001 0V0Z" fill="#606C78"/>
<path d="M6.89486 10.8838C2.59335 16.0748 0.00585938 22.7382 0.00585938 30.0062C0.00585938 37.2754 2.59253 43.9399 6.89474 49.1315L7.24914 44.6214V13.4152L6.89486 10.8838Z" fill="#4A5056"/>
<path d="M52.8174 40.329L53.0927 49.1465C56.097 45.5276 58.2725 41.1817 59.3115 36.3857C57.335 37.96 55.1547 39.2888 52.8174 40.329Z" fill="#4A5056"/>
<path d="M53.0394 10.8001C47.5374 4.20694 39.2585 0 29.9997 0C27.6638 0 25.5094 0.278416 23.5586 0.703862L15.9219 28.3082L23.7663 59.3514C25.7771 59.7764 27.8624 60 29.9997 60C39.2331 60 47.5668 55.8047 53.0935 49.1471L53.0394 10.8001Z" fill="#F6F1F1"/>
<path d="M53.0406 11.9842L53.0269 2.20169C53.0251 0.959224 52.0174 0 50.7751 0H29.9993L20.4375 11.9842H53.0406Z" fill="#F6F1F1"/>
<path d="M53.039 10.8001C47.537 4.20694 39.2581 0 29.9993 0C27.746 0 25.6617 0.259126 23.7659 0.659283L20.4375 11.9841H53.0406L53.039 10.8001Z" fill="#F6F1F1"/>
<path d="M6.89355 10.8826V49.1318C11.1303 54.2444 17.0315 57.9278 23.7663 59.3513V0.65918C15.9512 2.30592 11.3429 6.5245 11.3272 6.53332C9.70383 7.82672 8.21741 9.2849 6.89355 10.8826Z" fill="#EFE7E4"/>
<path d="M23.7666 25.5605H46.0088V27.913H23.7666V25.5605Z" fill="white"/>
<path d="M23.7666 31.5225H45.9766V33.8749H23.7666V31.5225Z" fill="white"/>
<path d="M23.7666 37.4834H45.9444V39.8359H23.7666V37.4834Z" fill="white"/>
<path d="M23.7666 43.4443H45.9121V45.7968H23.7666V43.4443Z" fill="white"/>
<path d="M23.7666 49.4062H45.8799V51.7587H23.7666V49.4062Z" fill="white"/>
<path d="M13.96 25.5605H23.7665V27.913H13.96V25.5605Z" fill="#F5F0F0"/>
<path d="M13.9453 31.5225H23.7662V33.8749H13.9453V31.5225Z" fill="#F5F0F0"/>
<path d="M13.9307 37.4834H23.7659V39.8359H13.9307V37.4834Z" fill="#F5F0F0"/>
<path d="M13.917 43.4443H23.7667V45.7968H13.917V43.4443Z" fill="#F5F0F0"/>
<path d="M13.9023 49.4062H23.7665V51.7587H13.9023V49.4062Z" fill="#F5F0F0"/>
<path d="M30.3453 7.51172L33.217 11.2053L37.6173 12.7952L34.9918 16.6678L34.8396 21.3439L30.3453 20.0437L25.8509 21.3439L25.6987 16.6678L23.0732 12.7952L27.4736 11.2053L30.3453 7.51172Z" fill="#FFD23C"/>
<path d="M25.8504 21.3444L30.3977 15.4043L25.6982 16.6683L25.8504 21.3444Z" fill="#FFC305"/>
<path d="M23.0732 12.7949L30.3982 15.4035L27.4736 11.2051L23.0732 12.7949Z" fill="#FFC305"/>
<path d="M30.3457 7.51172L30.3985 15.4038L33.2174 11.2053L30.3457 7.51172Z" fill="#FFC305"/>
<path d="M37.6176 12.7949L30.3984 15.4036L34.9921 16.6676L37.6176 12.7949Z" fill="#FFC305"/>
<path d="M34.84 21.3444L30.3985 15.4043L30.3457 20.0442L34.84 21.3444Z" fill="#FFC305"/>
<path d="M16.9825 11.2051L19.0874 13.9124L22.3126 15.0777L20.3883 17.9162L20.2766 21.3437L16.9825 20.3907L13.6883 21.3437L13.5767 17.9162L11.6523 15.0777L14.8776 13.9124L16.9825 11.2051Z" fill="#FFD23C"/>
<path d="M13.6888 21.3432L17.0217 16.9893L13.5771 17.9158L13.6888 21.3432Z" fill="#FFC305"/>
<path d="M11.6523 15.0784L17.0212 16.9904L14.8776 13.9131L11.6523 15.0784Z" fill="#FFC305"/>
<path d="M16.9824 11.2051L17.0211 16.9897L19.0873 13.9124L16.9824 11.2051Z" fill="#FFC305"/>
<path d="M22.3129 15.0771L17.0215 16.9891L20.3886 17.9156L22.3129 15.0771Z" fill="#FFC305"/>
<path d="M20.2766 21.3432L17.0211 16.9893L16.9824 20.3902L20.2766 21.3432Z" fill="#FFC305"/>
<path d="M42.9473 11.2051L45.0523 13.9124L48.2776 15.0777L46.3531 17.9162L46.2416 21.3437L42.9473 20.3907L39.6531 21.3437L39.5415 17.9162L37.6172 15.0777L40.8424 13.9124L42.9473 11.2051Z" fill="#FFD23C"/>
<path d="M39.6536 21.3432L42.9866 16.9893L39.542 17.9158L39.6536 21.3432Z" fill="#FFC305"/>
<path d="M37.6172 15.0784L42.9861 16.9904L40.8424 13.9131L37.6172 15.0784Z" fill="#FFC305"/>
<path d="M42.9473 11.2051L42.9861 16.9897L45.0523 13.9124L42.9473 11.2051Z" fill="#FFC305"/>
<path d="M48.2778 15.0771L42.9863 16.9891L46.3533 17.9156L48.2778 15.0771Z" fill="#FFC305"/>
<path d="M46.2416 21.3432L42.9861 16.9893L42.9473 20.3902L46.2416 21.3432Z" fill="#FFC305"/>
</svg>
