<svg width="56" height="60" viewBox="0 0 56 60" fill="none" xmlns="http://www.w3.org/2000/svg">
<path d="M26.855 49.9999H3.99887C1.78977 49.9999 -0.000976562 48.2091 -0.000976562 46.0001V42H30.6971L26.855 49.9999Z" fill="#D3DCFB"/>
<path d="M52.0029 18.0001V34.8045V45.9999H3.99887C1.78977 45.9999 -0.000976562 44.2091 -0.000976562 42V18.0001L28.001 8L52.0029 18.0001Z" fill="#EBF5FC"/>
<path d="M7.06246 26H4.9375C4.41977 26 4 25.5802 4 25.0625V22.9375C4 22.4198 4.41977 22 4.9375 22H7.06246C7.5802 22 7.99996 22.4198 7.99996 22.9375V25.0625C7.99996 25.5802 7.5802 26 7.06246 26Z" fill="#3C58A0"/>
<path d="M15.0625 26H12.9375C12.4198 26 12 25.5802 12 25.0625V22.9375C12 22.4198 12.4198 22 12.9375 22H15.0625C15.5802 22 16 22.4198 16 22.9375V25.0625C16 25.5802 15.5802 26 15.0625 26Z" fill="#3C58A0"/>
<path d="M23.0625 26H20.9375C20.4198 26 20 25.5802 20 25.0625V22.9375C20 22.4198 20.4198 22 20.9375 22H23.0625C23.5802 22 24 22.4198 24 22.9375V25.0625C24 25.5802 23.5803 26 23.0625 26Z" fill="#3C58A0"/>
<path d="M31.0625 26H28.9375C28.4198 26 28 25.5802 28 25.0625V22.9375C28 22.4198 28.4198 22 28.9375 22H31.0625C31.5802 22 32 22.4198 32 22.9375V25.0625C32 25.5802 31.5802 26 31.0625 26Z" fill="#3C58A0"/>
<path d="M39.0615 26H36.9365C36.4188 26 35.999 25.5802 35.999 25.0625V22.9375C35.999 22.4198 36.4188 22 36.9365 22H39.0615C39.5792 22 39.999 22.4198 39.999 22.9375V25.0625C39.999 25.5802 39.5793 26 39.0615 26Z" fill="#3C58A0"/>
<path d="M47.0615 26H44.9365C44.4188 26 43.999 25.5802 43.999 25.0625V22.9375C43.999 22.4198 44.4188 22 44.9365 22H47.0615C47.5792 22 47.999 22.4198 47.999 22.9375V25.0625C47.999 25.5802 47.5792 26 47.0615 26Z" fill="#3C58A0"/>
<path d="M7.06246 34H4.9375C4.41977 34 4 33.5802 4 33.0625V30.9375C4 30.4198 4.41977 30 4.9375 30H7.06246C7.5802 30 7.99996 30.4198 7.99996 30.9375V33.0625C7.99996 33.5803 7.5802 34 7.06246 34Z" fill="#3C58A0"/>
<path d="M15.0625 34H12.9375C12.4198 34 12 33.5802 12 33.0625V30.9375C12 30.4198 12.4198 30 12.9375 30H15.0625C15.5802 30 16 30.4198 16 30.9375V33.0625C16 33.5803 15.5802 34 15.0625 34Z" fill="#3C58A0"/>
<path d="M23.0625 34H20.9375C20.4198 34 20 33.5802 20 33.0625V30.9375C20 30.4198 20.4198 30 20.9375 30H23.0625C23.5802 30 24 30.4198 24 30.9375V33.0625C24 33.5803 23.5803 34 23.0625 34Z" fill="#3C58A0"/>
<path d="M32 34V31C32 30.4477 31.5523 30 31 30H29C28.4477 30 28 30.4477 28 31V33C28 33.5523 28.4478 34 29 34H32Z" fill="#3C58A0"/>
<path d="M7.06246 42H4.9375C4.41977 42 4 41.5802 4 41.0625V38.9375C4 38.4198 4.41977 38 4.9375 38H7.06246C7.5802 38 7.99996 38.4198 7.99996 38.9375V41.0625C7.99996 41.5802 7.5802 42 7.06246 42Z" fill="#3C58A0"/>
<path d="M15.0625 42H12.9375C12.4198 42 12 41.5802 12 41.0625V38.9375C12 38.4198 12.4198 38 12.9375 38H15.0625C15.5802 38 16 38.4198 16 38.9375V41.0625C16 41.5802 15.5802 42 15.0625 42Z" fill="#3C58A0"/>
<path d="M23.0625 42H20.9375C20.4198 42 20 41.5802 20 41.0625V38.9375C20 38.4198 20.4198 38 20.9375 38H23.0625C23.5802 38 24 38.4198 24 38.9375V41.0625C24 41.5802 23.5803 42 23.0625 42Z" fill="#3C58A0"/>
<path d="M47.0329 22H44.9645C44.8393 22 44.7202 22.0246 44.6104 22.0679C44.9684 22.2092 45.222 22.5575 45.222 22.9657V25.0341C45.222 25.4424 44.9682 25.7907 44.6104 25.932C44.7202 25.9754 44.8393 26 44.9645 26H47.0329C47.5663 26 47.9987 25.5675 47.9987 25.0342V22.9659C47.9986 22.4324 47.5662 22 47.0329 22Z" fill="#2A428C"/>
<path d="M39.0328 22H36.9645C36.8393 22 36.7202 22.0246 36.6104 22.0679C36.9684 22.2092 37.222 22.5575 37.222 22.9657V25.0341C37.222 25.4424 36.9682 25.7907 36.6104 25.932C36.7202 25.9754 36.8393 26 36.9645 26H39.0328C39.5663 26 39.9986 25.5675 39.9986 25.0342V22.9659C39.9986 22.4324 39.5663 22 39.0328 22Z" fill="#2A428C"/>
<path d="M31.0348 22H28.9664C28.8413 22 28.7221 22.0246 28.6123 22.0679C28.9703 22.2092 29.224 22.5575 29.224 22.9657V25.0341C29.224 25.4424 28.9703 25.7907 28.6123 25.932C28.7221 25.9754 28.8413 26 28.9664 26H31.0348C31.5682 26 32.0007 25.5675 32.0007 25.0342V22.9659C32.0005 22.4324 31.5681 22 31.0348 22Z" fill="#2A428C"/>
<path d="M23.0348 22H20.9664C20.8413 22 20.7221 22.0246 20.6123 22.0679C20.9703 22.2092 21.224 22.5575 21.224 22.9657V25.0341C21.224 25.4424 20.9703 25.7907 20.6123 25.932C20.7221 25.9754 20.8413 26 20.9664 26H23.0348C23.5682 26 24.0007 25.5675 24.0007 25.0342V22.9659C24.0005 22.4324 23.5682 22 23.0348 22Z" fill="#2A428C"/>
<path d="M15.0348 22H12.9664C12.8413 22 12.7221 22.0246 12.6123 22.0679C12.9703 22.2092 13.2239 22.5575 13.2239 22.9657V25.0341C13.2239 25.4424 12.9702 25.7907 12.6123 25.932C12.7221 25.9754 12.8413 26 12.9664 26H15.0348C15.5682 26 16.0007 25.5675 16.0007 25.0342V22.9659C16.0007 22.4324 15.5682 22 15.0348 22Z" fill="#2A428C"/>
<path d="M7.0348 22H4.96644C4.84129 22 4.72211 22.0246 4.6123 22.0679C4.97031 22.2092 5.22402 22.5575 5.22402 22.9657V25.0341C5.22402 25.4424 4.97031 25.7907 4.6123 25.932C4.72211 25.9754 4.84129 26 4.96644 26H7.0348C7.56824 26 8.00066 25.5675 8.00066 25.0342V22.9659C8.00054 22.4324 7.56812 22 7.0348 22Z" fill="#2A428C"/>
<path d="M7.0348 30H4.96644C4.84129 30 4.72211 30.0246 4.6123 30.0679C4.97031 30.2092 5.22402 30.5575 5.22402 30.9657V33.0342C5.22402 33.4425 4.97031 33.7908 4.6123 33.9321C4.72211 33.9755 4.84129 34.0001 4.96644 34.0001H7.0348C7.56824 34.0001 8.00066 33.5677 8.00066 33.0343V30.9659C8.00054 30.4324 7.56812 30 7.0348 30Z" fill="#2A428C"/>
<path d="M7.0348 38H4.96644C4.84129 38 4.72211 38.0246 4.6123 38.0679C4.97031 38.2092 5.22402 38.5575 5.22402 38.9657V41.0342C5.22402 41.4425 4.97031 41.7908 4.6123 41.9321C4.72211 41.9755 4.84129 42.0001 4.96644 42.0001H7.0348C7.56824 42.0001 8.00066 41.5677 8.00066 41.0343V38.9659C8.00054 38.4323 7.56812 38 7.0348 38Z" fill="#2A428C"/>
<path d="M15.0348 30H12.9664C12.8413 30 12.7221 30.0246 12.6123 30.0679C12.9703 30.2092 13.2239 30.5575 13.2239 30.9657V33.0342C13.2239 33.4425 12.9702 33.7908 12.6123 33.9321C12.7221 33.9755 12.8413 34.0001 12.9664 34.0001H15.0348C15.5682 34.0001 16.0007 33.5677 16.0007 33.0343V30.9659C16.0007 30.4324 15.5682 30 15.0348 30Z" fill="#2A428C"/>
<path d="M15.0348 38H12.9664C12.8413 38 12.7221 38.0246 12.6123 38.0679C12.9703 38.2092 13.2239 38.5575 13.2239 38.9657V41.0342C13.2239 41.4425 12.9702 41.7908 12.6123 41.9321C12.7221 41.9755 12.8413 42.0001 12.9664 42.0001H15.0348C15.5682 42.0001 16.0007 41.5677 16.0007 41.0343V38.9659C16.0007 38.4323 15.5682 38 15.0348 38Z" fill="#2A428C"/>
<path d="M23.0348 30H20.9664C20.8413 30 20.7221 30.0246 20.6123 30.0679C20.9703 30.2092 21.224 30.5575 21.224 30.9657V33.0342C21.224 33.4425 20.9703 33.7908 20.6123 33.9321C20.7221 33.9755 20.8413 34.0001 20.9664 34.0001H23.0348C23.5682 34.0001 24.0007 33.5677 24.0007 33.0343V30.9659C24.0005 30.4324 23.5682 30 23.0348 30Z" fill="#2A428C"/>
<path d="M32.0007 34V30.9657C32.0007 30.4323 31.5682 30 31.0348 30H28.9664C28.8413 30 28.7221 30.0246 28.6123 30.0679C28.9703 30.2092 29.224 30.5575 29.224 30.9657V33.0342C29.224 33.4425 28.9703 33.7908 28.6123 33.9321C28.7221 33.9755 28.8413 34.0001 28.9664 34.0001H32.0007V34Z" fill="#2A428C"/>
<path d="M23.0348 38H20.9664C20.8413 38 20.7221 38.0246 20.6123 38.0679C20.9703 38.2092 21.224 38.5575 21.224 38.9657V41.0342C21.224 41.4425 20.9703 41.7908 20.6123 41.9321C20.7221 41.9755 20.8413 42.0001 20.9664 42.0001H23.0348C23.5682 42.0001 24.0007 41.5677 24.0007 41.0343V38.9659C24.0005 38.4323 23.5682 38 23.0348 38Z" fill="#2A428C"/>
<path d="M49.2246 16.8418V34.8039V45.9994H52.0032V34.8039V17.9995L49.2246 16.8418Z" fill="#D3DCFB"/>
<path d="M52.0029 17.9999V7.99984C52.0029 5.79074 50.212 4 48.003 4H3.99887C1.78977 4 -0.000976562 5.79074 -0.000976562 7.99984V17.9999H52.0029Z" fill="#FD9733"/>
<path d="M12.6027 8.90551H9.99914C9.49898 8.90551 9.09375 8.50016 9.09375 8.00012C9.09375 7.50008 9.4991 7.09473 9.99914 7.09473H12.6027C13.1029 7.09473 13.5081 7.50008 13.5081 8.00012C13.5081 8.50016 13.1027 8.90551 12.6027 8.90551Z" fill="#D97009"/>
<path d="M18.9992 8.90551H16.3956C15.8955 8.90551 15.4902 8.50016 15.4902 8.00012C15.4902 7.50008 15.8956 7.09473 16.3956 7.09473H18.9992C19.4993 7.09473 19.9046 7.50008 19.9046 8.00012C19.9046 8.50016 19.4993 8.90551 18.9992 8.90551Z" fill="#D97009"/>
<path d="M35.6038 8.90551H33.0001C32.5 8.90551 32.0947 8.50016 32.0947 8.00012C32.0947 7.50008 32.5001 7.09473 33.0001 7.09473H35.6038C36.1039 7.09473 36.5092 7.50008 36.5092 8.00012C36.5092 8.50016 36.1039 8.90551 35.6038 8.90551Z" fill="#D97009"/>
<path d="M42.0003 8.90551H39.3966C38.8964 8.90551 38.4912 8.50016 38.4912 8.00012C38.4912 7.50008 38.8966 7.09473 39.3966 7.09473H42.0003C42.5004 7.09473 42.9057 7.50008 42.9057 8.00012C42.9057 8.50016 42.5003 8.90551 42.0003 8.90551Z" fill="#D97009"/>
<path d="M16.9989 7.5C16.9989 8.8807 15.8797 9.99996 14.499 9.99996C13.1183 9.99996 11.999 8.8807 11.999 7.5V2.49996C11.9989 1.11926 13.1182 0 14.4989 0C15.8796 0 16.9988 1.11926 16.9988 2.49996V7.5H16.9989Z" fill="#EBF5FC"/>
<path d="M40 7.5C40 8.8807 38.8808 9.99996 37.5001 9.99996C36.1194 9.99996 35 8.8807 35 7.5V2.49996C35 1.11926 36.1193 0 37.5 0C38.8807 0 39.9999 1.11926 39.9999 2.49996V7.5H40Z" fill="#EBF5FC"/>
<path d="M37.5003 0C36.987 0 36.5103 0.155156 36.1133 0.420469C36.7842 0.868828 37.2263 1.63254 37.2263 2.50008V7.5C37.2263 8.36742 36.7842 9.13125 36.1133 9.57961C36.5102 9.8448 36.987 10.0001 37.5003 10.0001C38.881 10.0001 40.0003 8.88082 40.0003 7.50012V2.49996C40.0004 1.11926 38.8811 0 37.5003 0V0Z" fill="#D3DCFB"/>
<path d="M14.4993 0C13.9861 0 13.5093 0.155156 13.1123 0.420469C13.7832 0.868828 14.2254 1.63254 14.2254 2.50008V7.5C14.2254 8.36742 13.7832 9.13125 13.1123 9.57961C13.5092 9.8448 13.9861 10.0001 14.4993 10.0001C15.88 10.0001 16.9993 8.88082 16.9993 7.50012V2.49996C16.9994 1.11926 15.8802 0 14.4993 0V0Z" fill="#D3DCFB"/>
<path d="M48.0033 4H45.2256C47.4347 4 49.2254 5.79074 49.2254 7.99984V18H52.003V7.99996C52.0031 5.79086 50.2123 4 48.0033 4Z" fill="#DB722C"/>
<path d="M-0.000976562 13.0947H52.003V14.9056H-0.000976562V13.0947Z" fill="#D97009"/>
<path d="M41.001 60C49.2852 60 56.001 53.2843 56.001 45C56.001 36.7157 49.2852 30 41.001 30C32.7167 30 26.001 36.7157 26.001 45C26.001 53.2843 32.7167 60 41.001 60Z" fill="#4FABF7"/>
<path d="M41.001 56.0001C47.0762 56.0001 52.0011 51.0752 52.0011 45C52.0011 38.9249 47.0762 34 41.001 34C34.9259 34 30.001 38.9249 30.001 45C30.001 51.0752 34.9259 56.0001 41.001 56.0001Z" fill="#EBF5FC"/>
<path d="M41.0011 43.9055C40.5009 43.9055 40.0957 43.5002 40.0957 43.0002V38.0001C40.0957 37.5001 40.5011 37.0947 41.0011 37.0947C41.5013 37.0947 41.9065 37.5001 41.9065 38.0001V43.0002C41.9065 43.5002 41.5011 43.9055 41.0011 43.9055Z" fill="#3C58A0"/>
<path d="M46.0012 45.9055H43.0011C42.5009 45.9055 42.0957 45.5002 42.0957 45.0001C42.0957 44.5001 42.5011 44.0947 43.0011 44.0947H46.0012C46.5014 44.0947 46.9066 44.5001 46.9066 45.0001C46.9066 45.5002 46.5013 45.9055 46.0012 45.9055Z" fill="#3C58A0"/>
<path d="M41.0007 30C40.5326 30 40.0697 30.0226 39.6124 30.0646C47.2457 30.7652 53.224 37.1839 53.224 45C53.224 52.8161 47.2455 59.2348 39.6123 59.9354C40.0696 59.9774 40.5325 60 41.0006 60C49.2848 60 56.0006 53.2842 56.0006 45C56.0006 36.7158 49.285 30 41.0007 30Z" fill="#1886EA"/>
<path d="M41.0007 34C40.5307 34 40.0677 34.0296 39.6133 34.0868C45.0334 34.769 49.2259 39.3948 49.2259 45C49.2259 50.6052 45.0334 55.2311 39.6133 55.9132C40.0677 55.9704 40.5307 56.0001 41.0007 56.0001C47.0758 56.0001 52.0007 51.0752 52.0007 45C52.0007 38.9249 47.0758 34 41.0007 34Z" fill="#D3DCFB"/>
<path d="M41.001 47.0001C42.1056 47.0001 43.0011 46.1046 43.0011 45C43.0011 43.8954 42.1056 43 41.001 43C39.8964 43 39.001 43.8954 39.001 45C39.001 46.1046 39.8964 47.0001 41.001 47.0001Z" fill="#FFDD40"/>
</svg>
