<svg width="58" height="60" viewBox="0 0 58 60" fill="none" xmlns="http://www.w3.org/2000/svg">
<path d="M48.7247 52.1508C54.258 46.9172 57.7112 39.5067 57.7112 31.2892C57.7112 15.4325 44.8568 2.57812 29.0001 2.57812C13.1435 2.57812 0.289062 15.4325 0.289062 31.2892C0.289062 47.1458 13.1435 60.0002 29.0001 60.0002C30.2427 60.0002 31.4668 59.9211 32.6677 59.7681L48.7247 52.1508Z" fill="#4A5056"/>
<path d="M45.5045 42.8394C45.2525 41.9135 45.1637 40.9508 45.242 39.9945L45.7108 35.5782C45.9397 32.8073 45.5173 30.0312 44.2907 27.5361C41.1214 21.0893 41.8486 20.6215 41.75 14.2232C41.75 12.9162 40.6904 11.8564 39.3833 11.8564C38.0762 11.8564 37.0166 12.9161 37.0166 14.2232C37.0166 40.2425 37.065 38.3332 36.9045 39.0961V42.5032C36.9045 45.3738 34.5691 47.7094 31.6985 47.7094C29.792 47.7094 23.2171 47.7094 18.7432 47.7094C20.7335 50.4773 23.4563 52.6446 26.6162 53.957C26.6357 53.9651 26.6553 53.9733 26.6749 53.9816C29.1162 55.0127 31.8421 57.0703 32.2977 59.6232L32.3417 59.8056C38.7707 59.0603 44.5516 56.1922 48.9659 51.9192L45.5045 42.8394Z" fill="#F9BA8F"/>
<path d="M9.95236 11.9395L9.23154 11.2717C8.12025 10.242 6.36865 10.3088 5.33904 11.42C4.30943 12.5313 4.37623 14.2829 5.4874 15.3125L9.95236 19.4496V11.9395Z" fill="#F9BA8F"/>
<path d="M6.95236 13.2419C6.27068 12.6102 5.98392 11.7072 6.10029 10.8467C5.8222 10.9891 5.56298 11.1782 5.33904 11.4197C4.30943 12.531 4.37623 14.2826 5.4874 15.3122L9.95236 19.4493V16.0217L6.95236 13.2419Z" fill="#FCAD6D"/>
<path d="M45.7196 43.4043C44.742 50.1456 38.9401 55.3245 31.9278 55.3245C30.7171 55.3245 29.5427 55.1699 28.4229 54.8799C30.2795 56.0151 31.9496 57.6742 32.2972 59.6226L32.3413 59.8049C38.7703 59.0596 44.5511 56.1916 48.9655 51.9186L45.7196 43.4043Z" fill="#FD995B"/>
<path d="M32.9397 47.8213H13.9278C11.6795 47.8213 9.85059 45.9922 9.85059 43.744V4.0773C9.85047 1.82906 11.6795 0 13.9278 0H32.9397C35.1879 0 37.0169 1.82906 37.0169 4.0773V43.7441C37.0169 45.9922 35.1878 47.8213 32.9397 47.8213Z" fill="#2A428C"/>
<path d="M22.1743 45.2845C20.7503 43.8606 22.1743 42.4656 22.1743 42.4656L22.0397 29.4225C20.22 27.6028 22.1743 25.9318 22.1743 25.9318C22.1743 25.9318 23.5415 14.6948 22.1582 12.881C20.775 11.0671 22.6575 9.8427 22.6575 9.8427V6.82301C20.0939 6.82301 20.0229 4.62855 20.0229 4.62855C19.1386 3.74438 20.0229 2.92172 20.0229 2.92172V1.51254C19.2441 1.01895 19.4332 0.354141 19.6164 0H13.9278C11.6795 0 9.85059 1.82906 9.85059 4.07719V43.744C9.85059 45.9922 11.6796 47.8213 13.9278 47.8213H22.1743C20.8956 46.5427 22.1743 45.2845 22.1743 45.2845Z" fill="#142766"/>
<path d="M20.4301 2.92199H20.023C19.6338 2.92199 19.3184 2.60652 19.3184 2.21734C19.3184 1.82816 19.6338 1.5127 20.023 1.5127H20.4301C20.8193 1.5127 21.1348 1.82816 21.1348 2.21734C21.1348 2.60652 20.8192 2.92199 20.4301 2.92199Z" fill="#3C58A0"/>
<path d="M26.7465 2.92199H22.8345C22.4454 2.92199 22.1299 2.60652 22.1299 2.21734C22.1299 1.82816 22.4454 1.5127 22.8345 1.5127H26.7465C27.1357 1.5127 27.4511 1.82816 27.4511 2.21734C27.4511 2.60652 27.1357 2.92199 26.7465 2.92199Z" fill="#3C58A0"/>
<path d="M32.9392 2.53711H30.0818C29.5491 2.53711 29.1173 2.96895 29.1173 3.50156C29.1173 4.1216 28.61 4.62902 27.9899 4.62902H18.8766C18.2564 4.62902 17.7491 4.12172 17.7491 3.50156C17.7491 2.96895 17.3173 2.53711 16.7846 2.53711H13.9273C13.0765 2.53711 12.3867 3.22687 12.3867 4.07766V43.7445C12.3867 44.5952 13.0765 45.285 13.9273 45.285H32.9392C33.79 45.285 34.4797 44.5952 34.4797 43.7445C34.4797 39.6641 34.4797 5.16668 34.4797 4.07766C34.4797 3.22687 33.79 2.53711 32.9392 2.53711Z" fill="#E9EFFF"/>
<path d="M22.1737 42.466L22.0392 29.423C20.2195 27.6033 22.1737 25.9323 22.1737 25.9323C22.1737 25.9323 23.541 14.6953 22.1577 12.8815C20.7745 11.0675 22.657 9.84316 22.657 9.84316V6.82348C20.0934 6.82348 20.0224 4.62902 20.0224 4.62902H18.8766C18.2564 4.62902 17.7491 4.12172 17.7491 3.50156C17.7491 2.96895 17.3173 2.53711 16.7846 2.53711H13.9273C13.0765 2.53711 12.3867 3.22676 12.3867 4.07766V43.7445C12.3867 44.5952 13.0765 45.285 13.9273 45.285H22.1737C20.7498 43.8612 22.1737 42.466 22.1737 42.466Z" fill="#BEC8F7"/>
<path d="M13.9617 26.4656C13.0559 27.4433 11.5288 27.5015 10.5511 26.5955L6.50847 22.8498C5.53078 21.9439 5.47253 20.4168 6.37851 19.4391C7.28437 18.4614 8.81144 18.4032 9.78913 19.3092L13.8317 23.055C14.8094 23.9609 14.8677 25.4879 13.9617 26.4656Z" fill="#F9BA8F"/>
<path d="M12.2142 24.8928L8.1716 21.147C7.49543 20.5205 7.25976 19.5971 7.47785 18.7637C7.07027 18.8813 6.68789 19.1053 6.37851 19.4391C5.47253 20.4168 5.53078 21.9439 6.50847 22.8498L10.5511 26.5955C11.5288 27.5014 13.0557 27.4433 13.9617 26.4656C14.2411 26.1641 14.4281 25.81 14.5254 25.4383C13.7394 25.6651 12.858 25.4894 12.2142 24.8928Z" fill="#FCAD6D"/>
<path d="M13.9617 39.6316C13.0559 40.6093 11.5288 40.6675 10.5511 39.7616L6.50847 36.0158C5.53078 35.1099 5.47253 33.5828 6.37851 32.6052C7.28437 31.6275 8.81144 31.5692 9.78913 32.4752L13.8317 36.221C14.8094 37.1268 14.8677 38.6539 13.9617 39.6316Z" fill="#F9BA8F"/>
<path d="M12.2142 38.0588L8.1716 34.313C7.49543 33.6866 7.25976 32.7631 7.47785 31.9297C7.07027 32.0473 6.68789 32.2713 6.37851 32.6052C5.47253 33.5829 5.53078 35.1099 6.50847 36.0158L10.5511 39.7616C11.5288 40.6674 13.0557 40.6093 13.9617 39.6316C14.2411 39.3301 14.4281 38.976 14.5254 38.6043C13.7394 38.8312 12.858 38.6554 12.2142 38.0588Z" fill="#FCAD6D"/>
<path d="M13.9617 33.0486C13.0559 34.0263 11.5288 34.0845 10.5511 33.1786L6.50847 29.4328C5.53078 28.5269 5.47253 26.9998 6.37851 26.0221C7.28437 25.0444 8.81144 24.9862 9.78913 25.8922L13.8317 29.638C14.8094 30.5438 14.8677 32.0708 13.9617 33.0486Z" fill="#F9BA8F"/>
<path d="M12.2142 31.4758L8.1716 27.73C7.49543 27.1036 7.25976 26.1801 7.47785 25.3467C7.07027 25.4643 6.68777 25.6883 6.37851 26.0221C5.47253 26.9998 5.53078 28.5268 6.50847 29.4328L10.5511 33.1786C11.5288 34.0845 13.0557 34.0263 13.9617 33.0486C14.2411 32.7471 14.4281 32.393 14.5254 32.0213C13.7394 32.2482 12.858 32.0724 12.2142 31.4758Z" fill="#FCAD6D"/>
<path d="M30.5071 12.8809H16.3605C15.8825 12.8809 15.4951 13.2683 15.4951 13.7463V24.3773L19.4107 18.8462C20.073 17.9107 21.4612 17.9107 22.1236 18.8462L24.6519 22.4177C24.773 22.5887 25.0267 22.5887 25.1477 22.4177L25.6634 21.6893C26.2759 20.8239 27.56 20.8239 28.1726 21.6893L31.0434 25.7447C31.2436 25.5861 31.3725 25.3414 31.3725 25.0663V13.7463C31.3725 13.2683 30.9851 12.8809 30.5071 12.8809Z" fill="#FFDD40"/>
<path d="M27.0703 17.5153C27.2469 16.7682 26.7844 16.0193 26.0372 15.8427C25.2901 15.6661 24.5413 16.1286 24.3647 16.8757C24.1881 17.6229 24.6506 18.3717 25.3977 18.5483C26.1448 18.7249 26.8936 18.2624 27.0703 17.5153Z" fill="#FCF2C8"/>
<path d="M18.3901 9.53434C19.0531 8.8714 19.0531 7.79657 18.3901 7.13363C17.7272 6.47069 16.6524 6.47069 15.9894 7.13363C15.3265 7.79657 15.3265 8.8714 15.9894 9.53434C16.6524 10.1973 17.7272 10.1973 18.3901 9.53434Z" fill="#816AE2"/>
<path d="M25.089 8.73156C25.3046 7.8192 24.7399 6.90476 23.8275 6.68909C22.9151 6.47343 22.0007 7.03821 21.785 7.95057C21.5694 8.86293 22.1341 9.77737 23.0465 9.99304C23.9589 10.2087 24.8733 9.64392 25.089 8.73156Z" fill="#FC90CE"/>
<path d="M30.3312 9.89355C31.1976 9.53442 31.6089 8.54092 31.2497 7.6745C30.8906 6.80809 29.8971 6.39686 29.0307 6.75599C28.1643 7.11512 27.753 8.10862 28.1122 8.97503C28.4713 9.84144 29.4648 10.2527 30.3312 9.89355Z" fill="#4FABF7"/>
<path d="M30.5071 29.4229H16.3605C15.8825 29.4229 15.4951 29.8103 15.4951 30.2883V40.9193L19.4107 35.3882C20.073 34.4527 21.4612 34.4527 22.1236 35.3882L24.6519 38.9597C24.773 39.1307 25.0267 39.1307 25.1477 38.9597L25.6634 38.2313C26.2759 37.3659 27.56 37.3659 28.1726 38.2313L31.0434 42.2866C31.2436 42.1281 31.3725 41.8834 31.3725 41.6082V30.2884C31.3725 29.8103 30.9851 29.4229 30.5071 29.4229Z" fill="#73C3F9"/>
<path d="M25.7155 35.1166C26.4833 35.1166 27.1058 34.4941 27.1058 33.7262C27.1058 32.9584 26.4833 32.3359 25.7155 32.3359C24.9477 32.3359 24.3252 32.9584 24.3252 33.7262C24.3252 34.4941 24.9477 35.1166 25.7155 35.1166Z" fill="#FFDD40"/>
<path d="M48.4613 10.1816C46.9029 12.164 45.4964 15.0121 46.6208 18.1202C48.7302 23.9506 52.0896 28.9002 50.527 37.5191C49.818 41.4299 52.1446 43.0693 54.8976 43.6934C56.6999 39.9385 57.7112 35.7319 57.7112 31.2885C57.7113 22.9415 54.1481 15.4278 48.4613 10.1816Z" fill="#616C78"/>
<path d="M20.5915 14.0307C20.5915 13.0828 21.6152 12.9075 22.1574 12.8809H16.3596C15.8816 12.8809 15.4941 13.2683 15.4941 13.7463V24.3773L19.4097 18.8462C19.7032 18.4317 20.1392 18.2016 20.5913 18.1544C20.5915 16.2729 20.5915 14.5475 20.5915 14.0307Z" fill="#FFB332"/>
<path d="M15.4941 30.2883V40.9193L19.4097 35.3882C19.7032 34.9737 20.1392 34.7436 20.5913 34.6965C20.5913 32.8118 20.5913 31.0825 20.5913 30.565C20.5913 29.6827 21.4787 29.4696 22.0388 29.4229H16.3595C15.8817 29.4227 15.4941 29.8103 15.4941 30.2883Z" fill="#4FABF7"/>
<path d="M28.1726 21.5604C27.56 20.6951 26.2759 20.6951 25.6634 21.5604L25.1477 22.2889C25.0267 22.4598 24.773 22.4598 24.6519 22.2889L22.1236 18.7173C21.4612 17.7817 20.073 17.7817 19.4107 18.7173L15.4951 24.2485V25.0662C15.4951 25.5442 15.8825 25.9316 16.3605 25.9316H30.5072C30.7369 25.9316 30.9451 25.8415 31.1 25.6955L28.1726 21.5604Z" fill="#2A428C"/>
<path d="M28.1726 38.1024C27.56 37.2371 26.2759 37.2371 25.6634 38.1024L25.1477 38.8309C25.0267 39.0018 24.773 39.0018 24.6519 38.8309L22.1236 35.2593C21.4612 34.3237 20.073 34.3237 19.4107 35.2593L15.4951 40.7905V41.6082C15.4951 42.0862 15.8825 42.4736 16.3605 42.4736H30.5072C30.7369 42.4736 30.9451 42.3835 31.1 42.2375L28.1726 38.1024Z" fill="#4CE088"/>
<path d="M20.5923 24.129C20.5923 24.129 20.5923 20.8698 20.5923 18.0264C20.1401 18.0736 19.7041 18.3035 19.4107 18.7181L15.4951 24.2493V25.0671C15.4951 25.5451 15.8825 25.9325 16.3605 25.9325H22.1743C20.5923 25.5873 20.5923 24.129 20.5923 24.129Z" fill="#1C2E7A"/>
<path d="M22.1743 42.4656C20.5923 42.1205 20.5923 40.6623 20.5923 40.6623C20.5923 40.6623 20.5923 37.4091 20.5923 34.5674C20.1401 34.6146 19.7041 34.8445 19.4107 35.259L15.4951 40.7902V41.6079C15.4951 42.0859 15.8825 42.4733 16.3605 42.4733H22.2028C22.1932 42.4709 22.1844 42.4678 22.1743 42.4656Z" fill="#30C16B"/>
</svg>
