<svg width="60" height="58" viewBox="0 0 60 58" fill="none" xmlns="http://www.w3.org/2000/svg">
<path d="M30.6806 57.7108C46.5372 57.7108 59.3915 44.8565 59.3915 28.9999C59.3915 13.1434 46.5372 0.289062 30.6806 0.289062C14.824 0.289062 1.96973 13.1434 1.96973 28.9999C1.96973 44.8565 14.824 57.7108 30.6806 57.7108Z" fill="#4A5056"/>
<path d="M59.2083 14.5225H31.1743V25.3691C31.1743 25.6914 30.9107 25.955 30.5884 25.955H26.7773V36.5118C26.7773 36.947 27.1335 37.3029 27.5684 37.3029H59.2083C59.6435 37.3029 59.9995 36.9469 59.9995 36.5118V15.3135C59.9995 14.8784 59.6435 14.5225 59.2083 14.5225Z" fill="#91E0E8"/>
<path d="M29.1035 36.5119V25.9551H26.7783V36.5119C26.7783 36.9472 27.1345 37.3031 27.5693 37.3031H29.8946C29.4597 37.3032 29.1035 36.9472 29.1035 36.5119Z" fill="#5DC1D8"/>
<path d="M52.4126 26.9092C52.1321 26.5766 51.6734 26.5766 51.3929 26.9092L47.2808 31.7883C47.0003 32.1208 46.5415 32.1208 46.2612 31.7883L38.499 22.5798C38.2186 22.2468 37.7598 22.2468 37.4794 22.5798L26.7783 35.2748V36.5128C26.7783 36.948 27.1345 37.3039 27.5693 37.3039H59.2093C59.6444 37.3039 60.0004 36.9479 60.0004 36.5128V35.9107L52.4126 26.9092Z" fill="#0F9390"/>
<path d="M54.4565 23.3758C56.0947 23.3758 57.4227 22.0478 57.4227 20.4096C57.4227 18.7714 56.0947 17.4434 54.4565 17.4434C52.8183 17.4434 51.4902 18.7714 51.4902 20.4096C51.4902 22.0478 52.8183 23.3758 54.4565 23.3758Z" fill="white"/>
<path d="M53.1297 20.4097C53.1297 19.0557 54.0371 17.9146 55.2766 17.5589C55.0162 17.4843 54.7416 17.4434 54.4572 17.4434C52.8192 17.4434 51.4912 18.7713 51.4912 20.4097C51.4912 22.0481 52.8192 23.3761 54.4572 23.3761C54.7416 23.3761 55.0163 23.3352 55.2766 23.2605C54.0371 22.9049 53.1297 21.7638 53.1297 20.4097Z" fill="#D9EAFC"/>
<path d="M31.2919 25.4864C31.2919 25.8087 31.0283 26.0724 30.706 26.0724H0.585936C0.263671 26.0724 0 25.8087 0 25.4864V2.51562C0 2.19336 0.263671 1.92969 0.585936 1.92969H30.706C31.0283 1.92969 31.2919 2.19336 31.2919 2.51562V25.4864Z" fill="#FF9929"/>
<path d="M9.66699 8.27035C9.66699 7.62582 10.1237 7.36215 10.6818 7.68442L20.6091 13.4158C21.1673 13.7381 21.1673 14.2654 20.6091 14.5877L10.6818 20.3192C10.1237 20.6414 9.66699 20.3778 9.66699 19.7332V8.27035Z" fill="white"/>
<path d="M11.9922 8.44098L10.6818 7.68442C10.1237 7.36215 9.66699 7.62582 9.66699 8.27035V19.7332C9.66699 20.3778 10.1237 20.6414 10.6818 20.3192L11.9922 19.5626V8.44098Z" fill="#D9EAFC"/>
<path d="M29.4735 6.44214C29.4735 6.6355 29.3153 6.7937 29.1219 6.7937H26.6611C26.4678 6.7937 26.3096 6.6355 26.3096 6.44214V3.98144C26.3096 3.78809 26.4678 3.62988 26.6611 3.62988H29.1219C29.3153 3.62988 29.4735 3.78809 29.4735 3.98144V6.44214Z" fill="#D97009"/>
<path d="M29.4735 10.8367C29.4735 11.03 29.3153 11.1882 29.1219 11.1882H26.6611C26.4678 11.1882 26.3096 11.03 26.3096 10.8367V8.37598C26.3096 8.18262 26.4678 8.02441 26.6611 8.02441H29.1219C29.3153 8.02441 29.4735 8.18262 29.4735 8.37598V10.8367Z" fill="#D97009"/>
<path d="M29.4735 15.2302C29.4735 15.4236 29.3153 15.5818 29.1219 15.5818H26.6611C26.4678 15.5818 26.3096 15.4236 26.3096 15.2302V12.7695C26.3096 12.5762 26.4678 12.418 26.6611 12.418H29.1219C29.3153 12.418 29.4735 12.5762 29.4735 12.7695V15.2302Z" fill="#D97009"/>
<path d="M29.4735 19.6248C29.4735 19.8181 29.3153 19.9763 29.1219 19.9763H26.6611C26.4678 19.9763 26.3096 19.8181 26.3096 19.6248V17.1641C26.3096 16.9707 26.4678 16.8125 26.6611 16.8125H29.1219C29.3153 16.8125 29.4735 16.9707 29.4735 17.1641V19.6248Z" fill="#D97009"/>
<path d="M29.4735 24.0193C29.4735 24.2127 29.3153 24.3709 29.1219 24.3709H26.6611C26.4678 24.3709 26.3096 24.2127 26.3096 24.0193V21.5586C26.3096 21.3652 26.4678 21.207 26.6611 21.207H29.1219C29.3153 21.207 29.4735 21.3652 29.4735 21.5586V24.0193Z" fill="#D97009"/>
<path d="M4.98218 6.44214C4.98218 6.6355 4.82398 6.7937 4.63062 6.7937H2.16992C1.97656 6.7937 1.81836 6.6355 1.81836 6.44214V3.98144C1.81836 3.78809 1.97656 3.62988 2.16992 3.62988H4.63062C4.82398 3.62988 4.98218 3.78809 4.98218 3.98144V6.44214Z" fill="#D97009"/>
<path d="M4.98218 10.8367C4.98218 11.03 4.82398 11.1882 4.63062 11.1882H2.16992C1.97656 11.1882 1.81836 11.03 1.81836 10.8367V8.37598C1.81836 8.18262 1.97656 8.02441 2.16992 8.02441H4.63062C4.82398 8.02441 4.98218 8.18262 4.98218 8.37598V10.8367Z" fill="#D97009"/>
<path d="M4.98218 15.2302C4.98218 15.4236 4.82398 15.5818 4.63062 15.5818H2.16992C1.97656 15.5818 1.81836 15.4236 1.81836 15.2302V12.7695C1.81836 12.5762 1.97656 12.418 2.16992 12.418H4.63062C4.82398 12.418 4.98218 12.5762 4.98218 12.7695V15.2302Z" fill="#D97009"/>
<path d="M4.98218 19.6248C4.98218 19.8181 4.82398 19.9763 4.63062 19.9763H2.16992C1.97656 19.9763 1.81836 19.8181 1.81836 19.6248V17.1641C1.81836 16.9707 1.97656 16.8125 2.16992 16.8125H4.63062C4.82398 16.8125 4.98218 16.9707 4.98218 17.1641V19.6248Z" fill="#D97009"/>
<path d="M4.98218 24.0193C4.98218 24.2127 4.82398 24.3709 4.63062 24.3709H2.16992C1.97656 24.3709 1.81836 24.2127 1.81836 24.0193V21.5586C1.81836 21.3652 1.97656 21.207 2.16992 21.207H4.63062C4.82398 21.207 4.98218 21.3652 4.98218 21.5586V24.0193Z" fill="#D97009"/>
<path d="M24.1345 28.877H3.75488C3.43262 28.877 3.16895 29.1406 3.16895 29.4629V37.2261C3.98035 39.9437 5.18316 42.492 6.71234 44.8064H14.1044L18.8829 49.5849C19.1109 49.8129 19.2973 49.7356 19.2973 49.4134V44.8064H24.1346C24.4568 44.8064 24.7205 44.5427 24.7205 44.2204V29.4629C24.7204 29.1406 24.4567 28.877 24.1345 28.877Z" fill="#52BBEF"/>
<path d="M5.49418 29.4629C5.49418 29.1406 5.75785 28.877 6.08011 28.877H3.75488C3.43262 28.877 3.16895 29.1406 3.16895 29.4629V37.2261C3.75055 39.1741 4.53429 41.0345 5.49418 42.7847V29.4629Z" fill="#1E99D6"/>
<path d="M19.7607 34.7031H8.12891C7.64352 34.7031 7.25 34.3096 7.25 33.8242C7.25 33.3388 7.64352 32.9453 8.12891 32.9453H19.7607C20.2461 32.9453 20.6396 33.3388 20.6396 33.8242C20.6396 34.3096 20.2461 34.7031 19.7607 34.7031Z" fill="white"/>
<path d="M19.7607 37.7637H8.12891C7.64352 37.7637 7.25 37.3702 7.25 36.8848C7.25 36.3994 7.64352 36.0059 8.12891 36.0059H19.7607C20.2461 36.0059 20.6396 36.3994 20.6396 36.8848C20.6396 37.3702 20.2461 37.7637 19.7607 37.7637Z" fill="white"/>
<path d="M13.968 40.8223H8.1289C7.64351 40.8223 7.25 40.4287 7.25 39.9434C7.25 39.458 7.64351 39.0645 8.1289 39.0645H13.968C14.4534 39.0645 14.8469 39.458 14.8469 39.9434C14.8469 40.4287 14.4534 40.8223 13.968 40.8223Z" fill="white"/>
<path d="M45.8922 40.3154H27.4229C27.1006 40.3154 26.8369 40.5791 26.8369 40.9014V54.8833C26.8369 55.2056 27.1006 55.4693 27.4229 55.4693H41.8222C43.4572 54.7803 45.0141 53.943 46.4781 52.9765V40.9015C46.4781 40.5791 46.2144 40.3154 45.8922 40.3154Z" fill="#EF8318"/>
<path d="M29.1621 54.8832V40.9014C29.1621 40.5791 29.4258 40.3154 29.7481 40.3154H27.4229C27.1006 40.3154 26.8369 40.5791 26.8369 40.9014V54.8833C26.8369 55.2056 27.1006 55.4693 27.4229 55.4693H29.7481C29.4258 55.4692 29.1621 55.2055 29.1621 54.8832Z" fill="#DB722C"/>
<path d="M33.4014 44.7313C33.4014 44.0868 33.858 43.8231 34.4162 44.1454L39.8917 47.3066C40.4499 47.6289 40.4499 48.1562 39.8917 48.4785L34.4162 51.6397C33.858 51.962 33.4014 51.6983 33.4014 51.0538V44.7313Z" fill="white"/>
</svg>
